<svg width="1426" height="1522" viewBox="0 0 1426 1522" fill="none" xmlns="http://www.w3.org/2000/svg">
<path d="M56.5 531.106H176.5L143.498 667.772C128.067 731.675 128.503 798.382 144.769 862.078L176.5 986.339H56.5L24.7688 862.078C8.50344 798.383 8.06726 731.675 23.4983 667.772L56.5 531.106Z" fill="#206010"/>
<path d="M1368.73 531.106H1248.73L1281.73 667.772C1297.16 731.675 1296.72 798.382 1280.46 862.078L1248.73 986.339H1368.73L1400.46 862.078C1416.72 798.383 1417.16 731.675 1401.73 667.772L1368.73 531.106Z" fill="#206010"/>
<path d="M78.5631 1048.55L177.458 986.793L239.048 1124.45C263.845 1179.87 302.018 1229.69 350.602 1270.06L461.228 1361.96L362.333 1423.72L251.707 1331.82C203.123 1291.45 164.95 1241.63 140.153 1186.21L78.5631 1048.55Z" fill="#206010"/>
<path d="M1346.66 1048.55L1247.77 986.793L1186.18 1124.45C1161.38 1179.87 1123.21 1229.69 1074.63 1270.06L964 1361.96L1062.9 1423.72L1173.52 1331.82C1222.11 1291.45 1260.28 1241.63 1285.07 1186.21L1346.66 1048.55Z" fill="#206010"/>
<path d="M963.028 1466.56L961.981 1357.52L785.886 1394.1C732.507 1405.18 677.414 1405.32 623.945 1394.49L461 1361.49L462.047 1470.53L624.992 1503.52C678.461 1514.35 733.554 1514.22 786.934 1503.13L963.028 1466.56Z" fill="#206010"/>
<path d="M963.028 55.3093L961.981 164.343L785.886 127.768C732.507 116.681 677.414 116.547 623.945 127.375L461 160.37L462.047 51.3367L624.992 18.3409C678.461 7.51353 733.554 7.64737 786.934 18.7344L963.028 55.3093Z" fill="#206010"/>
<path d="M362.333 94.5013L461.228 156.261L341.87 257.838C293.813 298.735 256.3 348.972 232.241 404.651L177.458 531.431L78.5632 469.671L133.346 342.891C157.405 287.213 194.918 236.975 242.974 196.078L362.333 94.5013Z" fill="#206010"/>
<path d="M1062.9 94.5013L964 156.261L1083.36 257.838C1131.41 298.735 1168.93 348.972 1192.99 404.651L1247.77 531.431L1346.66 469.671L1291.88 342.891C1267.82 287.213 1230.31 236.975 1182.25 196.078L1062.9 94.5013Z" fill="#206010"/>
<path d="M249.801 597.969H334.335L318.299 663.993C302.695 728.236 303.136 795.332 319.583 859.365L334.335 916.8H249.801L235.049 859.365C218.603 795.332 218.162 728.236 233.765 663.993L249.801 597.969Z" fill="#309627"/>
<path d="M1174.2 597.969H1089.66L1105.7 663.993C1121.3 728.236 1120.86 795.332 1104.42 859.365L1089.66 916.8H1174.2L1188.95 859.365C1205.4 795.332 1205.84 728.236 1190.23 663.993L1174.2 597.969Z" fill="#309627"/>
<path d="M265.344 960.373L335.01 917.118L367.042 988.295C391.979 1043.71 430.371 1093.53 479.227 1133.88L534.911 1179.87L465.245 1223.13L409.561 1177.14C360.705 1136.78 322.312 1086.96 297.376 1031.55L265.344 960.373Z" fill="#309627"/>
<path d="M1158.66 960.373L1088.99 917.118L1056.96 988.295C1032.02 1043.71 993.629 1093.53 944.773 1133.88L889.089 1179.87L958.755 1223.13L1014.44 1177.14C1063.3 1136.78 1101.69 1086.96 1126.62 1031.55L1158.66 960.373Z" fill="#309627"/>
<path d="M888.404 1253.13L887.666 1176.76L787.077 1197.54C733.988 1208.5 679.215 1208.63 626.035 1197.92L534.751 1179.55L535.489 1255.91L626.773 1274.29C679.952 1284.99 734.726 1284.86 787.815 1273.9L888.404 1253.13Z" fill="#309627"/>
<path d="M888.404 264.737L887.666 341.101L787.077 320.329C733.988 309.367 679.215 309.234 626.035 319.941L534.751 338.318L535.489 261.955L626.773 243.577C679.952 232.871 734.726 233.003 787.815 243.965L888.404 264.737Z" fill="#309627"/>
<path d="M465.245 292.186L534.911 335.44L472.835 387.963C424.509 428.851 386.779 479.085 362.585 534.751L335.01 598.197L265.344 554.942L292.919 491.497C317.112 435.831 354.842 385.597 403.168 344.708L465.245 292.186Z" fill="#309627"/>
<path d="M958.755 292.186L889.089 335.44L951.165 387.963C999.491 428.851 1037.22 479.085 1061.41 534.751L1088.99 598.197L1158.66 554.942L1131.08 491.497C1106.89 435.831 1069.16 385.597 1020.83 344.708L958.755 292.186Z" fill="#309627"/>
<path d="M478.578 479.555C513.734 482.484 544.496 484.242 570.863 484.828C597.816 485.414 620.668 485.707 639.418 485.707C661.098 485.707 679.848 485.121 695.668 483.949C712.074 482.191 733.461 479.848 759.828 476.918C782.094 473.988 810.805 470.18 845.961 465.492C881.117 460.219 923.891 453.48 974.281 445.277C967.836 455.238 962.27 465.785 957.582 476.918C953.48 487.465 949.965 497.133 947.035 505.922C944.105 516.469 941.469 526.723 939.125 536.684C937.367 547.816 935.316 561.586 932.973 577.992C930.629 592.055 927.699 609.926 924.184 631.605C921.254 652.699 917.445 677.895 912.758 707.191C895.18 661.488 877.309 626.332 859.145 601.723C841.566 577.113 825.16 558.949 809.926 547.23C792.348 533.754 775.648 526.137 759.828 524.379C736.977 524.379 718.227 528.773 703.578 537.562C688.93 546.352 676.918 557.777 667.543 571.84C658.754 585.316 652.016 600.258 647.328 616.664C642.641 632.484 639.418 648.012 637.66 663.246C635.902 677.895 634.73 691.078 634.145 702.797C633.559 713.93 632.973 721.547 632.387 725.648C652.895 724.477 670.18 723.012 684.242 721.254C698.305 719.496 709.438 717.738 717.641 715.98C727.602 713.637 735.512 711.293 741.371 708.949C750.16 704.262 758.949 698.695 767.738 692.25C775.355 686.391 783.266 679.359 791.469 671.156C800.258 662.953 807.875 652.992 814.32 641.273C810.805 662.367 807.582 679.945 804.652 694.008C802.309 708.07 800.258 719.203 798.5 727.406C796.156 737.367 794.691 744.984 794.105 750.258C792.934 755.531 791.469 762.855 789.711 772.23C787.953 780.434 785.902 790.98 783.559 803.871C781.215 816.762 778.578 832.875 775.648 852.211C768.617 839.906 761.293 829.945 753.676 822.328C746.059 814.125 739.027 807.68 732.582 802.992C724.965 797.719 717.641 793.617 710.609 790.688C702.992 788.344 694.789 786 686 783.656C678.383 781.898 669.301 780.141 658.754 778.383C648.793 776.039 637.953 773.988 626.234 772.23C627.406 803.871 629.164 831.117 631.508 853.969C633.852 876.234 635.902 894.984 637.66 910.219C640.004 927.797 642.348 942.445 644.691 954.164C647.621 965.883 652.309 978.48 658.754 991.957C664.027 1003.68 671.352 1017.15 680.727 1032.39C690.688 1047.04 703.285 1062.86 718.52 1079.85C706.801 1076.92 694.496 1074.87 681.605 1073.7C668.715 1072.52 657.289 1071.64 647.328 1071.06C635.023 1070.47 623.305 1070.47 612.172 1071.06C600.453 1071.64 587.562 1072.82 573.5 1074.57C561.781 1075.75 548.305 1077.5 533.07 1079.85C517.836 1082.19 501.723 1084.83 484.73 1087.76C494.691 1077.8 502.895 1067.84 509.34 1057.88C515.785 1047.91 520.473 1039.12 523.402 1031.51C526.918 1022.72 529.262 1014.22 530.434 1006.02C531.02 998.988 531.312 983.754 531.312 960.316C531.312 936.293 531.02 908.461 530.434 876.82C529.848 844.594 528.969 810.609 527.797 774.867C526.625 739.125 525.453 705.727 524.281 674.672C523.109 643.031 521.645 616.078 519.887 593.812C518.715 571.547 517.25 558.07 515.492 553.383C513.148 547.523 510.512 540.785 507.582 533.168C502.895 520.863 493.227 502.992 478.578 479.555Z" fill="#7CC800"/>
</svg>
